HIERARCHY
ROOT Hips
{
  OFFSET -213.699 104.721 0.752556
  CHANNELS 6 Xposition Yposition Zposition Zrotation Xrotation Yrotation
  JOINT RightUpLeg
  {
    OFFSET -8.9458 -8.66707 0.101652
    CHANNELS 3 Zrotation Xrotation Yrotation
    JOINT RightLeg
    {
      OFFSET 0 -44.4227 1.3727
      CHANNELS 3 Zrotation Xrotation Yrotation
      JOINT RightFoot
      {
        OFFSET 0.253549 -42.0924 -1.46059
        CHANNELS 3 Zrotation Xrotation Yrotation
        JOINT RightToes
        {
          OFFSET 0.04 -4.41509 8.4991
          CHANNELS 3 Zrotation Xrotation Yrotation
          End Site
          {
            OFFSET -0.08 -0.137448 9.77979
          }
        }
      }
    }
  }
  JOINT Spine
  {
    OFFSET 0 11.8905 0
    CHANNELS 3 Zrotation Xrotation Yrotation
    JOINT Spine1
    {
      OFFSET 0 25.6574 0.127663
      CHANNELS 3 Zrotation Xrotation Yrotation
      JOINT HEad
      {
        OFFSET 0 8.73416 0.011341
        CHANNELS 3 Zrotation Xrotation Yrotation
        End Site
        {
          OFFSET -0.29 12.7742 2.51395
        }
      }
      JOINT LeftShoulder1
      {
        OFFSET 8.99 -0.362252 -0.22
        CHANNELS 3 Zrotation Xrotation Yrotation
        JOINT LeftArm
        {
          OFFSET 10.2827 -0.00337999 0.322123
          CHANNELS 3 Zrotation Xrotation Yrotation
          JOINT LeftForeArm
          {
            OFFSET 26.2597 0.099144 -1.42434
            CHANNELS 3 Zrotation Xrotation Yrotation
            JOINT LeftHand
            {
              OFFSET 22.0902 0.085362 1.02216
              CHANNELS 3 Zrotation Xrotation Yrotation
              End Site
              {
                OFFSET 13.419 -0.6 1.50291
              }
            }
          }
        }
      }
      JOINT RightShoulder
      {
        OFFSET -8.99 -0.362252 -0.22
        CHANNELS 3 Zrotation Xrotation Yrotation
        JOINT RightArm
        {
          OFFSET -10.2827 -0.00338 0.322123
          CHANNELS 3 Zrotation Xrotation Yrotation
          JOINT RightForeArm
          {
            OFFSET -26.364 0.099144 -1.42434
            CHANNELS 3 Zrotation Xrotation Yrotation
            JOINT RightHand
            {
              OFFSET -22.0324 0.085362 1.02216
              CHANNELS 3 Zrotation Xrotation Yrotation
              End Site
              {
                OFFSET -13.3284 -0.6 1.50291
              }
            }
          }
        }
      }
    }
  }
  JOINT LeftUpLeg
  {
    OFFSET 8.9458 -8.66707 0.101652
    CHANNELS 3 Zrotation Xrotation Yrotation
    JOINT LeftLeg
    {
      OFFSET 0 -44.4227 1.3727
      CHANNELS 3 Zrotation Xrotation Yrotation
      JOINT LeftFoot
      {
        OFFSET -0.253549 -42.0924 -1.46059
        CHANNELS 3 Zrotation Xrotation Yrotation
        JOINT LeftToes
        {
          OFFSET -0.04 -4.41509 8.4991
          CHANNELS 3 Zrotation Xrotation Yrotation
          End Site
          {
            OFFSET 0.08 -0.047448 9.77979
          }
        }
      }
    }
  }
}
MOTION
Frames:	12
Frame Time:	0.0333333
-201.727 104.766 -11.9022 1.01441 0.198953 89.8073 -0.182616 2.42146 -2.38511 -0.499443 7.80941 -17.531 -2.00769 -4.17917 -0.0953036 0.0462048 0.000530889 0.662642 -2.7175 0.578294 -0.555291 2.41386 6.63231 -1.0687 -2.5172 2.42205 6.17954 -11.9942 -0.677807 7.04707 -29.3583 -73.7111 -27.7507 0.429445 53.8151 5.99736 0.719213 9.90997 -7.09398 12.4862 -0.248007 -5.8703 4.961 -41.6739 -0.284226 -0.275829 28.5962 4.35404 -1.93986 9.84155 1.06073 -1.30861 0.974338 1.34506 1.56869 7.09794 19.317 1.84241 -4.14352 -0.0429525 -1.32942e-009 8.75233e-006 -1.47059e-008 
-201.639 104.757 -11.9284 0.950111 0.221145 89.7968 -0.225486 2.36144 -2.40697 -0.50393 7.90432 -17.4957 -1.95597 -4.25284 -0.0953126 0.0462048 0.000530889 0.662642 -2.70963 0.448823 -0.55528 2.40892 6.7324 -1.06892 -2.23879 2.33943 5.83028 -12.0184 -0.68595 7.08551 -28.7472 -73.3941 -27.2317 0.0124224 53.5031 6.17633 0.922458 9.88794 -6.73817 12.5192 -0.249415 -5.88323 4.91524 -41.7764 -0.293883 -0.341835 29.0203 4.3986 -1.91722 9.84111 1.19353 -1.35259 0.955564 1.31385 1.56428 7.11627 19.3626 1.87481 -4.19684 -0.0429554 -1.32942e-009 8.75233e-006 -1.47059e-008 
-201.465 104.745 -11.9635 0.827317 0.227675 89.7288 -0.232836 2.30916 -2.36693 -0.555668 7.94981 -17.4544 -1.88876 -4.32541 -0.0953216 0.0462048 0.000530889 0.662642 -2.69502 0.244288 -0.555618 2.41737 6.84423 -1.07221 -1.81539 2.11033 5.18859 -12.0509 -0.696741 7.13626 -27.8887 -73.0488 -26.483 -0.461989 53.1478 6.3786 1.19114 9.8603 -6.34872 12.5211 -0.248507 -5.87848 4.98771 -42.0525 -0.19139 -0.545144 29.506 4.36627 -1.82909 9.84002 1.47228 -1.37749 0.915988 1.30773 1.54775 7.17014 19.4426 1.88736 -4.29565 -0.0429609 -1.32942e-009 8.75233e-006 -1.47059e-008 
-201.29 104.738 -11.9777 0.719748 0.183626 89.6523 -0.153647 2.33944 -2.24977 -0.636567 7.85885 -17.4834 -1.87522 -4.34061 -0.0953644 0.0462048 0.000530889 0.662642 -2.68275 0.128301 -0.570357 2.44079 6.82693 -1.09505 -1.60952 1.69211 4.52317 -12.0839 -0.693075 7.11154 -26.7895 -72.8895 -25.4605 -0.7482 52.905 6.49874 1.29855 9.84977 -6.22845 12.527 -0.229502 -5.78102 5.10794 -42.2536 -0.0863654 -0.728256 29.354 4.32545 -1.73157 9.83995 1.62103 -1.3284 0.891766 1.36385 1.5241 7.22648 19.4697 1.84933 -4.39554 -0.042038 -1.32942e-009 8.75233e-006 -1.47059e-008 
-201.142 104.731 -11.9788 0.651943 0.134578 89.6475 -0.0727017 2.421 -2.17038 -0.674442 7.73149 -17.5642 -1.89582 -4.34524 -0.0955661 0.0462048 0.000530889 0.662642 -2.66133 0.0899028 -0.62511 2.42844 6.73098 -1.14943 -1.57613 1.27683 4.08439 -12.074 -0.674441 7.01622 -25.7375 -72.9159 -24.4433 -0.817487 52.8382 6.52741 1.20018 9.8595 -6.33962 12.6374 -0.199809 -5.61895 5.04837 -42.1407 -0.156423 -0.68528 28.7564 4.45852 -1.73926 9.84235 1.45413 -1.26192 0.919194 1.43025 1.50217 7.21102 19.4219 1.82605 -4.47401 -0.0393075 -1.32942e-009 8.75233e-006 -1.47059e-008 
-201.005 104.724 -11.9894 0.581327 0.131888 89.679 -0.0840228 2.45368 -2.19947 -0.652331 7.69325 -17.5828 -1.8921 -4.38756 -0.0958537 0.0462048 0.000530889 0.662642 -2.62964 -0.00152121 -0.684053 2.37392 6.70541 -1.19223 -1.48819 1.06636 3.9203 -12.0547 -0.669133 6.99183 -25.7726 -73.1439 -24.505 -0.582935 53.1459 6.43362 0.982469 9.88155 -6.58683 12.7925 -0.175146 -5.47964 4.80285 -41.8624 -0.419367 -0.503803 28.4756 4.74577 -1.81973 9.84451 1.19629 -1.26674 0.971984 1.42893 1.49718 7.1159 19.401 1.85565 -4.52373 -0.0375156 -1.32942e-009 8.75233e-006 -1.47059e-008 
-200.866 104.718 -12.0084 0.475629 0.174826 89.6419 -0.160628 2.39045 -2.26308 -0.633275 7.75738 -17.482 -1.85709 -4.46026 -0.0962024 0.0462048 0.000530889 0.662642 -2.61177 -0.183499 -0.681434 2.35489 6.78502 -1.17754 -1.38079 0.948718 3.7534 -12.1631 -0.697204 7.1193 -27.2356 -73.4486 -26.0561 -0.15571 53.7446 6.26311 0.817063 9.89899 -6.86191 12.8289 -0.157842 -5.38935 4.55826 -41.7533 -0.791717 -0.480773 28.7221 4.99864 -1.8112 9.84545 1.2237 -1.34644 0.989217 1.34973 1.52399 7.03452 19.5095 1.86583 -4.55559 -0.0360179 -1.32942e-009 8.75233e-006 -1.47059e-008 
-200.734 104.712 -12.0109 0.39271 0.204979 89.523 -0.193829 2.34053 -2.26638 -0.656963 7.81686 -17.3529 -1.82305 -4.52572 -0.0965833 0.0462048 0.000530889 0.662642 -2.60878 -0.354204 -0.616326 2.40537 6.89693 -1.11941 -1.39884 0.735008 3.41156 -12.4162 -0.735165 7.27155 -28.8324 -73.5617 -27.7792 0.0977194 54.1125 6.16164 0.816465 9.89933 -7.02928 12.7503 -0.14763 -5.3447 4.44829 -41.8497 -1.11238 -0.64801 28.9743 5.10642 -1.71314 9.84515 1.52759 -1.4075 0.997352 1.27861 1.56794 7.0318 19.6844 1.78906 -4.60093 -0.0342284 -1.32942e-009 8.75233e-006 -1.47059e-008 
-200.606 104.704 -11.9829 0.417783 0.16645 89.4254 -0.127283 2.46657 -2.2213 -0.681958 7.75722 -17.3158 -1.79499 -4.55028 -0.0969678 0.0462048 0.000530889 0.662642 -2.57723 -0.436708 -0.573752 2.43757 7.0215 -1.08773 -1.40401 0.528584 3.16538 -12.6228 -0.747992 7.30088 -29.2499 -73.4539 -28.2248 0.0307805 54.0423 6.1896 0.876255 9.89302 -7.09593 12.7306 -0.15528 -5.38493 4.56506 -41.9429 -1.08385 -0.751287 28.9212 5.08722 -1.68538 9.84488 1.75099 -1.36197 1.1001 1.31356 1.58684 7.06344 19.7532 1.68332 -4.68453 -0.0313527 -1.32942e-009 8.75233e-006 -1.47059e-008 
-200.479 104.698 -11.9331 0.523765 0.0689577 89.4033 0.00564566 2.7482 -2.17918 -0.66455 7.57521 -17.3727 -1.77193 -4.51352 -0.0973287 0.0462048 0.000530889 0.662642 -2.49312 -0.456416 -0.614179 2.36514 7.15627 -1.12085 -1.18332 0.500868 3.21141 -12.6731 -0.742693 7.26525 -29.0474 -73.3671 -27.9141 -0.075983 54.078 6.24019 0.837666 9.89731 -7.20246 12.8516 -0.180733 -5.50232 5.00578 -41.9896 -0.552953 -0.709419 28.8138 4.98069 -1.76298 9.84562 1.74186 -1.21471 1.28642 1.45221 1.56527 7.08631 19.6635 1.63293 -4.7913 -0.0279759 -1.32942e-009 8.75233e-006 -1.47059e-008 
-200.374 104.698 -11.8756 0.577123 -0.0305572 89.3942 0.137733 2.9587 -2.13825 -0.626766 7.39478 -17.4337 -1.7915 -4.43826 -0.0976451 0.0462048 0.000530889 0.662642 -2.40248 -0.471212 -0.693179 2.21765 7.2135 -1.17251 -0.86942 0.50474 3.15031 -12.7401 -0.75375 7.30949 -29.6048 -73.3714 -28.3836 -0.0374261 54.5316 6.24127 0.852136 9.89559 -7.20861 13.0767 -0.19832 -5.56959 5.66074 -42.1151 0.134201 -0.729575 28.7897 4.88343 -1.79621 9.8463 1.71954 -1.0566 1.39081 1.58302 1.54308 7.13166 19.5597 1.60901 -4.87731 -0.0262668 -1.32942e-009 8.75233e-006 -1.47059e-008 
-200.303 104.699 -11.8163 0.523656 -0.0748346 89.347 0.21363 2.95928 -2.09687 -0.607364 7.35165 -17.441 -1.87537 -4.40475 -0.0979037 0.0462048 0.000530889 0.662642 -2.37814 -0.525143 -0.741968 2.07987 7.17058 -1.18663 -0.709119 0.299091 2.59526 -13.0556 -0.79324 7.45161 -31.3133 -73.1982 -30.1298 -0.0513962 54.6923 6.25451 1.26656 9.85267 -6.68665 13.4501 -0.191589 -5.5027 6.23435 -42.3003 0.519074 -0.907763 28.6438 4.95834 -1.72715 9.84597 1.86594 -0.979525 1.34897 1.61332 1.55726 7.19798 19.5789 1.54791 -4.91965 -0.0250039 -1.32942e-009 8.75233e-006 -1.47059e-008 
